<svg width="17" height="27" viewBox="0 0 17 27" fill="none" xmlns="http://www.w3.org/2000/svg">
<path fill-rule="evenodd" clip-rule="evenodd" d="M13.515 -0.000213623H0.894737C0.398158 -0.000213623 0 0.400181 0 0.894523V15.9248C0 17.5066 1.2839 18.7893 2.86311 18.7893H5.36842V20.2083C5.36842 20.7809 5.1403 21.3303 4.73767 21.7356C4.73767 21.7356 4.47368 21.9302 4.47368 22.3946V24.1899C4.47368 25.6546 5.65918 26.8419 7.12655 26.8419C7.9855 26.8419 9.0145 26.8419 9.87345 26.8419C11.3408 26.8419 12.5263 25.6546 12.5263 24.1899V22.3682L12.4637 22.4313C12.5353 22.2165 12.5039 21.9772 12.2623 21.7356C11.8597 21.3303 11.6316 20.7809 11.6316 20.2083V18.7893H14.1369C15.7161 18.7893 17 17.5066 17 15.9248V3.48479C17 2.56053 16.6331 1.67429 15.98 1.02068C15.3268 0.367075 14.441 -0.000213623 13.515 -0.000213623ZM10.7368 22.7113V24.1899C10.7368 24.6663 10.3521 25.0524 9.87345 25.0524C9.0145 25.0524 7.9855 25.0524 7.12655 25.0524C6.64786 25.0524 6.26316 24.6663 6.26316 24.1899V22.7113C6.84026 22.009 7.15789 21.125 7.15789 20.2083V17.8945C7.15789 17.4002 6.75974 16.9998 6.26316 16.9998C6.26316 16.9998 4.39759 16.9998 2.86311 16.9998C2.27259 16.9998 1.78947 16.5184 1.78947 15.9248V14.3156H15.2105V15.9248C15.2105 16.5184 14.7274 16.9998 14.1369 16.9998C12.6024 16.9998 10.7368 16.9998 10.7368 16.9998C10.2403 16.9998 9.8421 17.4002 9.8421 17.8945C9.8421 17.8945 9.8421 19.1785 9.8421 20.2083C9.8421 21.125 10.1597 22.009 10.7368 22.7113ZM3.57895 1.78926H1.78947V12.5261H15.2105V3.48479C15.2105 3.03519 15.0315 2.60392 14.7139 2.28584C14.3963 1.96776 13.9668 1.78926 13.515 1.78926H11.6316V7.15768C11.6316 7.65158 11.2289 8.05242 10.7368 8.05242C10.2447 8.05242 9.8421 7.65158 9.8421 7.15768V1.78926H5.36842V4.92084C5.36842 5.41473 4.96579 5.81558 4.47368 5.81558C3.98158 5.81558 3.57895 5.41473 3.57895 4.92084V1.78926Z" fill="#A0A0A0"/>
</svg>
