<svg width="19" height="12" viewBox="0 0 19 12" fill="none" xmlns="http://www.w3.org/2000/svg">
<path d="M1.83333 11.5H17.1667C17.6938 11.5 18.125 11.0687 18.125 10.5417C18.125 10.0146 17.6938 9.58333 17.1667 9.58333H1.83333C1.30625 9.58333 0.875 10.0146 0.875 10.5417C0.875 11.0687 1.30625 11.5 1.83333 11.5ZM1.83333 6.70833H17.1667C17.6938 6.70833 18.125 6.27708 18.125 5.75C18.125 5.22292 17.6938 4.79167 17.1667 4.79167H1.83333C1.30625 4.79167 0.875 5.22292 0.875 5.75C0.875 6.27708 1.30625 6.70833 1.83333 6.70833ZM0.875 0.958333C0.875 1.48542 1.30625 1.91667 1.83333 1.91667H17.1667C17.6938 1.91667 18.125 1.48542 18.125 0.958333C18.125 0.43125 17.6938 0 17.1667 0H1.83333C1.30625 0 0.875 0.43125 0.875 0.958333Z" fill="#A0A0A0"/>
</svg>
