<svg width="23" height="23" viewBox="0 0 23 23" fill="none" xmlns="http://www.w3.org/2000/svg">
<path d="M21.8437 11.5033C21.5388 11.5033 21.2463 11.6245 21.0307 11.8401C20.8151 12.0557 20.694 12.3481 20.694 12.653V19.551C20.694 19.8559 20.5729 20.1483 20.3573 20.3639C20.1417 20.5795 19.8492 20.7007 19.5443 20.7007H3.449C3.14409 20.7007 2.85167 20.5795 2.63606 20.3639C2.42046 20.1483 2.29933 19.8559 2.29933 19.551V3.45567C2.29933 3.15076 2.42046 2.85833 2.63606 2.64273C2.85167 2.42712 3.14409 2.306 3.449 2.306H10.347C10.6519 2.306 10.9443 2.18487 11.1599 1.96927C11.3755 1.75367 11.4967 1.46124 11.4967 1.15633C11.4967 0.851422 11.3755 0.559 11.1599 0.343396C10.9443 0.127791 10.6519 0.00666616 10.347 0.00666616H3.449C2.53427 0.00666616 1.657 0.370042 1.01019 1.01686C0.363376 1.66367 0 2.54093 0 3.45567V19.551C0 20.4657 0.363376 21.343 1.01019 21.9898C1.657 22.6366 2.53427 23 3.449 23H19.5443C20.4591 23 21.3363 22.6366 21.9831 21.9898C22.63 21.343 22.9933 20.4657 22.9933 19.551V12.653C22.9933 12.3481 22.8722 12.0557 22.6566 11.8401C22.441 11.6245 22.1486 11.5033 21.8437 11.5033ZM4.59867 12.3771V17.2517C4.59867 17.5566 4.71979 17.849 4.9354 18.0646C5.151 18.2802 5.44342 18.4013 5.74833 18.4013H10.6229C10.7742 18.4022 10.9242 18.3732 11.0643 18.316C11.2044 18.2588 11.3318 18.1745 11.4392 18.0679L19.3949 10.1007L22.6599 6.90467C22.7677 6.79779 22.8532 6.67064 22.9116 6.53054C22.9699 6.39044 23 6.24017 23 6.0884C23 5.93663 22.9699 5.78637 22.9116 5.64627C22.8532 5.50617 22.7677 5.37902 22.6599 5.27214L17.7853 0.340069C17.6785 0.232313 17.5513 0.146784 17.4112 0.0884173C17.2711 0.0300503 17.1208 0 16.9691 0C16.8173 0 16.667 0.0300503 16.5269 0.0884173C16.3868 0.146784 16.2597 0.232313 16.1528 0.340069L12.9108 3.59363L4.93207 11.5608C4.82552 11.6682 4.74122 11.7956 4.684 11.9357C4.62679 12.0758 4.59779 12.2258 4.59867 12.3771ZM16.9691 2.77736L20.2226 6.03092L18.5901 7.66345L15.3366 4.40989L16.9691 2.77736ZM6.898 12.8484L13.7155 6.03092L16.9691 9.28448L10.1516 16.102H6.898V12.8484Z" fill="black"/>
</svg>
