<svg width="43" height="43" viewBox="0 0 43 43" fill="none" xmlns="http://www.w3.org/2000/svg">
<g filter="url(#filter0_d_164_192)">
<rect x="8" y="8" width="27" height="27" rx="13.5" fill="#FF8B8B"/>
</g>
<path d="M24.25 27C25.1613 27 25.9 26.2613 25.9 25.35C25.9 24.4388 25.1613 23.7001 24.25 23.7001C23.3387 23.7001 22.6 24.4388 22.6 25.35C22.6 26.2613 23.3387 27 24.25 27Z" stroke="white" stroke-linecap="round" stroke-linejoin="round"/>
<path d="M24.25 19.2999C25.1613 19.2999 25.9 18.5612 25.9 17.65C25.9 16.7387 25.1613 16 24.25 16C23.3387 16 22.6 16.7387 22.6 17.65C22.6 18.5612 23.3387 19.2999 24.25 19.2999Z" stroke="white" stroke-linecap="round" stroke-linejoin="round"/>
<path d="M17.65 23.1498C18.5613 23.1498 19.3 22.4111 19.3 21.4998C19.3 20.5885 18.5613 19.8499 17.65 19.8499C16.7387 19.8499 16 20.5885 16 21.4998C16 22.4111 16.7387 23.1498 17.65 23.1498Z" stroke="white" stroke-linecap="round" stroke-linejoin="round"/>
<path d="M22.875 18.4749L19.025 20.6748" stroke="white"/>
<path d="M19.025 22.3251L22.875 24.5251" stroke="white"/>
<defs>
<filter id="filter0_d_164_192" x="0" y="0" width="43" height="43" filterUnits="userSpaceOnUse" color-interpolation-filters="sRGB">
<feFlood flood-opacity="0" result="BackgroundImageFix"/>
<feColorMatrix in="SourceAlpha" type="matrix" values="0 0 0 0 0 0 0 0 0 0 0 0 0 0 0 0 0 0 127 0" result="hardAlpha"/>
<feOffset/>
<feGaussianBlur stdDeviation="4"/>
<feComposite in2="hardAlpha" operator="out"/>
<feColorMatrix type="matrix" values="0 0 0 0 0 0 0 0 0 0 0 0 0 0 0 0 0 0 0.1 0"/>
<feBlend mode="normal" in2="BackgroundImageFix" result="effect1_dropShadow_164_192"/>
<feBlend mode="normal" in="SourceGraphic" in2="effect1_dropShadow_164_192" result="shape"/>
</filter>
</defs>
</svg>
